<?xml version="1.0" encoding="utf-8"?>
<svg xmlns="http://www.w3.org/2000/svg"
  xmlns:xlink="http://www.w3.org/1999/xlink">
  <symbol viewBox="0 0 169 50" id="hero-appstore">
    <path d="M162.523 50H5.903C2.65 50 0 47.34 0 44.084V5.907C0 2.65 2.649 0 5.903 0H162.523C165.776 0 168.519 2.65 168.519 5.907V44.084C168.519 47.34 165.776 50 162.523 50Z" fill="#A6A6A6"/>
    <path d="M167.31 44.085C167.31 46.73 165.17 48.873 162.524 48.873H5.904C3.258 48.873 1.111 46.73 1.111 44.085V5.90598C1.111 3.26298 3.258 1.11298 5.903 1.11298H162.523C165.171 1.11298 167.31 3.26298 167.31 5.90598V44.085Z" fill="black"/>
    <path d="M37.609 24.73C37.573 20.701 40.903 18.741 41.055 18.65C39.169 15.896 36.245 15.52 35.218 15.49C32.763 15.231 30.381 16.961 29.131 16.961C27.855 16.961 25.929 15.515 23.853 15.557C21.181 15.599 18.683 17.147 17.312 19.552C14.483 24.456 16.592 31.662 19.302 35.626C20.658 37.567 22.242 39.735 24.316 39.659C26.344 39.575 27.102 38.364 29.55 38.364C31.975 38.364 32.687 39.659 34.802 39.61C36.979 39.575 38.349 37.66 39.657 35.701C41.224 33.476 41.853 31.285 41.878 31.172C41.827 31.155 37.65 29.559 37.608 24.73H37.609ZM33.614 12.883C34.705 11.516 35.452 9.658 35.244 7.771C33.666 7.841 31.691 8.865 30.554 10.201C29.547 11.38 28.649 13.31 28.88 15.124C30.654 15.256 32.475 14.228 33.613 12.883H33.614Z" fill="white"/>
    <path d="M66.964 39.38H64.129L62.577 34.494H57.178L55.698 39.38H52.94L58.288 22.745H61.591L66.965 39.38H66.964ZM62.108 32.444L60.704 28.1C60.556 27.656 60.277 26.611 59.867 24.966H59.817C59.653 25.674 59.39 26.719 59.027 28.1L57.648 32.444H62.108ZM80.717 33.235C80.717 35.275 80.167 36.887 79.065 38.071C78.079 39.125 76.855 39.651 75.393 39.651C73.815 39.651 72.681 39.084 71.991 37.949H71.941V44.267H69.28V31.334C69.28 30.051 69.246 28.735 69.181 27.385H71.521L71.671 29.286H71.721C72.608 27.854 73.955 27.139 75.762 27.139C77.175 27.139 78.355 27.697 79.299 28.816C80.245 29.936 80.717 31.409 80.717 33.235ZM78.005 33.333C78.005 32.165 77.743 31.203 77.216 30.445C76.641 29.655 75.868 29.26 74.9 29.26C74.243 29.26 73.646 29.48 73.113 29.914C72.579 30.351 72.23 30.922 72.066 31.63C71.984 31.96 71.942 32.23 71.942 32.443V34.443C71.942 35.315 72.21 36.051 72.744 36.653C73.278 37.253 73.972 37.553 74.826 37.553C75.828 37.553 76.609 37.166 77.166 36.393C77.726 35.62 78.006 34.6 78.006 33.333H78.005ZM94.494 33.235C94.494 35.275 93.944 36.887 92.841 38.071C91.856 39.125 90.631 39.651 89.17 39.651C87.592 39.651 86.459 39.084 85.77 37.949H85.72V44.267H83.058V31.334C83.058 30.051 83.025 28.735 82.96 27.385H85.3L85.449 29.286H85.499C86.385 27.854 87.732 27.139 89.541 27.139C90.953 27.139 92.132 27.697 93.078 28.816C94.021 29.936 94.494 31.409 94.494 33.235ZM91.783 33.333C91.783 32.165 91.519 31.203 90.993 30.445C90.417 29.655 89.647 29.26 88.677 29.26C88.019 29.26 87.424 29.48 86.889 29.914C86.355 30.351 86.007 30.922 85.843 31.63C85.763 31.96 85.72 32.23 85.72 32.443V34.443C85.72 35.315 85.987 36.051 86.519 36.653C87.053 37.253 87.747 37.553 88.603 37.553C89.606 37.553 90.386 37.166 90.943 36.393C91.503 35.62 91.783 34.6 91.783 33.333ZM109.898 34.715C109.898 36.13 109.408 37.281 108.422 38.17C107.34 39.141 105.833 39.626 103.897 39.626C102.11 39.626 100.677 39.281 99.592 38.59L100.209 36.369C101.377 37.076 102.659 37.431 104.056 37.431C105.058 37.431 105.838 37.204 106.399 36.751C106.957 36.299 107.235 35.691 107.235 34.934C107.235 34.259 107.005 33.69 106.545 33.229C106.087 32.768 105.322 32.339 104.253 31.943C101.345 30.856 99.892 29.265 99.892 27.173C99.892 25.805 100.401 24.683 101.421 23.811C102.437 22.938 103.792 22.501 105.488 22.501C106.999 22.501 108.255 22.765 109.258 23.291L108.592 25.464C107.656 24.954 106.597 24.699 105.412 24.699C104.477 24.699 103.745 24.93 103.221 25.39C102.778 25.801 102.555 26.303 102.555 26.896C102.555 27.554 102.809 28.098 103.318 28.525C103.761 28.92 104.566 29.347 105.735 29.809C107.165 30.385 108.214 31.059 108.889 31.831C109.562 32.601 109.898 33.565 109.898 34.715ZM118.697 29.385H115.764V35.209C115.764 36.69 116.28 37.43 117.316 37.43C117.792 37.43 118.186 37.389 118.498 37.306L118.572 39.33C118.048 39.526 117.358 39.625 116.502 39.625C115.452 39.625 114.63 39.304 114.037 38.663C113.447 38.02 113.15 36.943 113.15 35.429V29.383H111.402V27.383H113.15V25.186L115.764 24.396V27.383H118.697V29.385ZM131.933 33.284C131.933 35.127 131.406 36.641 130.355 37.825C129.252 39.044 127.789 39.651 125.965 39.651C124.208 39.651 122.809 39.067 121.765 37.9C120.722 36.732 120.2 35.259 120.2 33.482C120.2 31.624 120.737 30.102 121.814 28.918C122.888 27.732 124.338 27.14 126.163 27.14C127.921 27.14 129.335 27.724 130.403 28.893C131.423 30.026 131.933 31.49 131.933 33.283V33.284ZM129.171 33.37C129.171 32.264 128.935 31.315 128.457 30.524C127.899 29.566 127.102 29.089 126.068 29.089C124.998 29.089 124.186 29.567 123.628 30.524C123.15 31.316 122.914 32.28 122.914 33.42C122.914 34.526 123.15 35.475 123.628 36.265C124.203 37.222 125.008 37.7 126.044 37.7C127.06 37.7 127.858 37.213 128.434 36.24C128.924 35.434 129.171 34.475 129.171 33.37ZM140.583 29.729C140.32 29.68 140.039 29.655 139.744 29.655C138.808 29.655 138.084 30.009 137.574 30.717C137.132 31.342 136.909 32.132 136.909 33.087V39.38H134.249L134.274 31.163C134.274 29.78 134.241 28.521 134.174 27.386H136.493L136.59 29.681H136.664C136.944 28.893 137.388 28.258 137.994 27.781C138.587 27.353 139.228 27.139 139.918 27.139C140.164 27.139 140.386 27.156 140.583 27.187V29.73V29.729ZM152.486 32.815C152.486 33.293 152.454 33.695 152.388 34.024H144.404C144.435 35.209 144.821 36.115 145.563 36.74C146.235 37.299 147.105 37.579 148.174 37.579C149.356 37.579 150.434 37.39 151.404 37.011L151.821 38.861C150.688 39.356 149.35 39.602 147.806 39.602C145.948 39.602 144.49 39.055 143.429 37.962C142.371 36.867 141.84 35.399 141.84 33.556C141.84 31.748 142.333 30.241 143.32 29.04C144.354 27.758 145.751 27.116 147.509 27.116C149.235 27.116 150.542 27.758 151.429 29.04C152.132 30.059 152.486 31.319 152.486 32.815ZM149.948 32.124C149.965 31.334 149.792 30.651 149.431 30.075C148.971 29.334 148.263 28.964 147.311 28.964C146.441 28.964 145.732 29.325 145.191 30.05C144.749 30.626 144.485 31.318 144.404 32.123H149.948V32.124Z" fill="white"/>
    <path d="M61.228 12.511C61.228 13.982 60.788 15.09 59.908 15.834C59.092 16.52 57.934 16.864 56.433 16.864C55.689 16.864 55.053 16.831 54.52 16.766V8.72697C55.215 8.61497 55.964 8.55697 56.773 8.55697C58.203 8.55697 59.28 8.86897 60.006 9.49097C60.82 10.195 61.228 11.201 61.228 12.511ZM59.848 12.548C59.848 11.594 59.597 10.862 59.092 10.352C58.588 9.84397 57.852 9.58897 56.882 9.58897C56.47 9.58897 56.119 9.61597 55.828 9.67397V15.785C55.989 15.81 56.284 15.821 56.712 15.821C57.713 15.821 58.486 15.543 59.03 14.985C59.574 14.427 59.849 13.615 59.849 12.547L59.848 12.548ZM68.542 13.796C68.542 14.702 68.283 15.445 67.767 16.027C67.225 16.627 66.507 16.925 65.611 16.925C64.747 16.925 64.059 16.639 63.546 16.064C63.034 15.49 62.778 14.766 62.778 13.894C62.778 12.981 63.042 12.232 63.571 11.651C64.101 11.07 64.812 10.779 65.708 10.779C66.572 10.779 67.266 11.065 67.792 11.639C68.291 12.196 68.542 12.916 68.542 13.796ZM67.185 13.839C67.185 13.295 67.068 12.829 66.835 12.44C66.56 11.97 66.169 11.735 65.661 11.735C65.135 11.735 64.736 11.97 64.461 12.44C64.227 12.829 64.111 13.302 64.111 13.862C64.111 14.406 64.228 14.872 64.461 15.262C64.745 15.732 65.139 15.966 65.648 15.966C66.148 15.966 66.54 15.727 66.822 15.249C67.064 14.853 67.185 14.383 67.185 13.839ZM78.348 10.899L76.508 16.791H75.308L74.546 14.232C74.353 13.594 74.196 12.959 74.073 12.329H74.049C73.936 12.976 73.779 13.61 73.576 14.233L72.766 16.791H71.554L69.823 10.9H71.167L71.832 13.701C71.993 14.363 72.126 14.995 72.232 15.592H72.255C72.353 15.1 72.514 14.472 72.741 13.714L73.576 10.9H74.642L75.442 13.652C75.636 14.324 75.793 14.97 75.914 15.592H75.95C76.039 14.986 76.173 14.34 76.35 13.652L77.064 10.9H78.348V10.899ZM85.13 16.791H83.822V13.416C83.822 12.376 83.428 11.856 82.636 11.856C82.248 11.856 81.935 11.999 81.691 12.285C81.451 12.571 81.328 12.909 81.328 13.295V16.79H80.02V12.583C80.02 12.065 80.004 11.503 79.972 10.896H81.122L81.183 11.817H81.219C81.372 11.531 81.599 11.295 81.897 11.107C82.252 10.887 82.649 10.775 83.083 10.775C83.633 10.775 84.089 10.953 84.453 11.309C84.904 11.745 85.13 12.396 85.13 13.261V16.791ZM88.738 16.791H87.431V8.19497H88.738V16.791ZM96.44 13.796C96.44 14.702 96.181 15.445 95.665 16.027C95.123 16.627 94.404 16.925 93.509 16.925C92.644 16.925 91.956 16.639 91.444 16.064C90.932 15.49 90.676 14.766 90.676 13.894C90.676 12.981 90.94 12.232 91.469 11.651C91.999 11.07 92.709 10.779 93.605 10.779C94.47 10.779 95.163 11.065 95.69 11.639C96.189 12.196 96.44 12.916 96.44 13.796ZM95.082 13.839C95.082 13.295 94.964 12.829 94.731 12.44C94.457 11.97 94.066 11.735 93.559 11.735C93.032 11.735 92.632 11.97 92.359 12.44C92.124 12.829 92.009 13.302 92.009 13.862C92.009 14.406 92.126 14.872 92.359 15.262C92.642 15.732 93.037 15.966 93.546 15.966C94.046 15.966 94.436 15.727 94.718 15.249C94.962 14.853 95.082 14.383 95.082 13.839ZM102.771 16.791H101.596L101.499 16.113H101.463C101.061 16.653 100.488 16.925 99.744 16.925C99.188 16.925 98.739 16.746 98.401 16.391C98.094 16.069 97.941 15.668 97.941 15.191C97.941 14.471 98.24 13.923 98.843 13.543C99.444 13.163 100.291 12.976 101.38 12.985V12.875C101.38 12.099 100.974 11.711 100.158 11.711C99.578 11.711 99.066 11.857 98.624 12.147L98.358 11.287C98.905 10.949 99.58 10.779 100.377 10.779C101.915 10.779 102.687 11.591 102.687 13.216V15.386C102.687 15.975 102.715 16.444 102.771 16.791ZM101.413 14.766V13.857C99.97 13.832 99.248 14.229 99.248 15.045C99.248 15.353 99.331 15.582 99.499 15.736C99.668 15.89 99.883 15.966 100.139 15.966C100.426 15.966 100.694 15.875 100.939 15.694C101.184 15.511 101.336 15.28 101.392 14.996C101.405 14.932 101.412 14.855 101.412 14.766H101.413ZM110.205 16.791H109.044L108.983 15.845H108.946C108.576 16.565 107.944 16.925 107.056 16.925C106.347 16.925 105.757 16.646 105.289 16.089C104.821 15.531 104.587 14.807 104.587 13.919C104.587 12.965 104.841 12.193 105.35 11.603C105.843 11.053 106.447 10.778 107.166 10.778C107.956 10.778 108.509 11.044 108.824 11.578H108.849V8.19397H110.159V15.203C110.159 15.777 110.173 16.305 110.205 16.79V16.791ZM108.849 14.306V13.324C108.849 13.154 108.836 13.016 108.813 12.911C108.739 12.596 108.581 12.331 108.34 12.118C108.096 11.904 107.803 11.796 107.465 11.796C106.977 11.796 106.595 11.99 106.314 12.379C106.035 12.768 105.894 13.264 105.894 13.87C105.894 14.452 106.028 14.925 106.296 15.289C106.58 15.676 106.962 15.87 107.44 15.87C107.87 15.87 108.212 15.709 108.473 15.385C108.725 15.086 108.849 14.726 108.849 14.306ZM121.393 13.796C121.393 14.702 121.135 15.445 120.618 16.027C120.076 16.627 119.36 16.925 118.462 16.925C117.599 16.925 116.912 16.639 116.397 16.064C115.886 15.49 115.63 14.766 115.63 13.894C115.63 12.981 115.893 12.232 116.422 11.651C116.952 11.07 117.663 10.779 118.561 10.779C119.423 10.779 120.118 11.065 120.643 11.639C121.143 12.196 121.393 12.916 121.393 13.796ZM120.037 13.839C120.037 13.295 119.92 12.829 119.687 12.44C119.411 11.97 119.021 11.735 118.512 11.735C117.988 11.735 117.588 11.97 117.312 12.44C117.078 12.829 116.962 13.302 116.962 13.862C116.962 14.406 117.079 14.872 117.312 15.262C117.596 15.732 117.99 15.966 118.499 15.966C118.999 15.966 119.392 15.727 119.674 15.249C119.915 14.853 120.037 14.383 120.037 13.839ZM128.427 16.791H127.12V13.416C127.12 12.376 126.726 11.856 125.933 11.856C125.545 11.856 125.231 11.999 124.989 12.285C124.747 12.571 124.626 12.909 124.626 13.295V16.79H123.316V12.583C123.316 12.065 123.302 11.503 123.27 10.896H124.419L124.48 11.817H124.516C124.67 11.531 124.896 11.295 125.194 11.107C125.55 10.887 125.945 10.775 126.381 10.775C126.929 10.775 127.386 10.953 127.749 11.309C128.202 11.745 128.427 12.396 128.427 13.261V16.791ZM137.231 11.88H135.791V14.742C135.791 15.47 136.047 15.834 136.553 15.834C136.788 15.834 136.983 15.814 137.136 15.773L137.17 16.766C136.912 16.864 136.572 16.912 136.154 16.912C135.637 16.912 135.235 16.755 134.944 16.44C134.652 16.125 134.507 15.595 134.507 14.851V11.88H133.647V10.899H134.507V9.81897L135.789 9.43097V10.897H137.23V11.88H137.231ZM144.156 16.791H142.847V13.441C142.847 12.385 142.453 11.856 141.663 11.856C141.056 11.856 140.642 12.162 140.414 12.775C140.376 12.904 140.354 13.061 140.354 13.246V16.79H139.046V8.19497H140.353V11.746H140.378C140.79 11.1 141.381 10.777 142.146 10.777C142.687 10.777 143.136 10.955 143.491 11.311C143.935 11.755 144.157 12.415 144.157 13.287V16.791H144.156ZM151.301 13.566C151.301 13.801 151.283 13.999 151.252 14.16H147.329C147.346 14.742 147.533 15.186 147.897 15.494C148.229 15.769 148.657 15.906 149.181 15.906C149.761 15.906 150.291 15.814 150.768 15.627L150.972 16.537C150.414 16.78 149.758 16.901 148.998 16.901C148.086 16.901 147.368 16.633 146.849 16.095C146.327 15.557 146.069 14.836 146.069 13.931C146.069 13.043 146.31 12.303 146.796 11.713C147.302 11.083 147.988 10.767 148.853 10.767C149.699 10.767 150.342 11.083 150.776 11.713C151.127 12.213 151.301 12.831 151.301 13.566ZM150.052 13.228C150.062 12.838 149.976 12.504 149.799 12.221C149.572 11.857 149.226 11.675 148.758 11.675C148.331 11.675 147.983 11.853 147.717 12.209C147.5 12.493 147.371 12.831 147.329 13.228H150.052Z" fill="white"/>
  </symbol>
  <symbol viewBox="0 0 170 50" id="hero-googleplay">
    <path d="M163.053 50H6.273C2.817 50 0 47.182 0 43.75V6.25C0 2.805 2.816 0 6.274 0H163.054C166.508 0 169.327 2.805 169.327 6.25V43.75C169.327 47.182 166.508 50 163.053 50Z" fill="black"/>
    <path fill-rule="evenodd" clip-rule="evenodd" d="M163.053 1C165.953 1 168.327 3.36 168.327 6.25V43.75C168.327 46.64 165.969 49 163.053 49H6.273C3.374 49 1 46.64 1 43.75V6.25C1 3.36 3.358 1 6.274 1H163.054H163.053ZM163.053 0H6.273C2.817 0 0 2.818 0 6.25V43.75C0 47.195 2.816 50 6.274 50H163.054C166.508 50 169.327 47.195 169.327 43.75V6.25C169.327 2.818 166.508 0 163.053 0Z" fill="#A6A6A6"/>
    <path d="M89.202 16.54C88.072 16.54 87.118 16.144 86.364 15.365C85.617 14.607 85.199 13.563 85.218 12.497C85.218 11.359 85.604 10.396 86.364 9.63197C87.115 8.85197 88.068 8.45697 89.199 8.45697C90.317 8.45697 91.271 8.85297 92.037 9.63197C92.797 10.421 93.183 11.384 93.183 12.497C93.171 13.637 92.784 14.601 92.037 15.362C91.287 16.147 90.333 16.54 89.202 16.54ZM55.557 16.54C54.451 16.54 53.491 16.15 52.707 15.38C51.927 14.613 51.532 13.644 51.532 12.5C51.532 11.356 51.928 10.387 52.706 9.61997C53.476 8.84997 54.436 8.45997 55.556 8.45997C56.105 8.45997 56.638 8.56997 57.148 8.78997C57.65 9.00597 58.058 9.29897 58.36 9.65697L58.435 9.74697L57.591 10.577L57.504 10.474C57.027 9.90597 56.388 9.62897 55.544 9.62897C54.79 9.62897 54.134 9.89697 53.591 10.427C53.046 10.96 52.769 11.658 52.769 12.503C52.769 13.348 53.046 14.046 53.591 14.579C54.133 15.109 54.791 15.377 55.544 15.377C56.348 15.377 57.024 15.109 57.55 14.579C57.862 14.267 58.055 13.831 58.123 13.279H55.416V12.113H59.286L59.301 12.219C59.329 12.416 59.357 12.619 59.357 12.805C59.357 13.881 59.033 14.751 58.391 15.393C57.662 16.153 56.709 16.54 55.557 16.54ZM100.292 16.375H99.099L95.445 10.524L95.475 11.577V16.372H94.283V8.62497H95.644L95.681 8.68497L99.117 14.195L99.087 13.145V8.62497H100.292V16.375ZM80.237 16.375H79.028V9.78997H76.932V8.62497H82.33V9.79097H80.234V16.375H80.237ZM75.947 16.375H74.742V8.62497H75.948V16.375H75.947ZM69.172 16.375H67.967V9.78997H65.871V8.62497H71.269V9.79097H69.172V16.375ZM65.107 16.362H60.485V8.62497H65.107V9.79097H61.693V11.917H64.774V13.07H61.694V15.196H65.107V16.362ZM87.249 14.564C87.788 15.103 88.442 15.374 89.202 15.374C89.984 15.374 90.622 15.109 91.155 14.564C91.685 14.034 91.953 13.339 91.953 12.5C91.953 11.661 91.685 10.963 91.158 10.436C90.619 9.89697 89.962 9.62597 89.205 9.62597C88.423 9.62597 87.785 9.89097 87.255 10.436C86.725 10.966 86.458 11.661 86.458 12.5C86.458 13.339 86.723 14.037 87.249 14.564Z" fill="white"/>
    <path fill-rule="evenodd" clip-rule="evenodd" d="M85.106 27.195C82.162 27.195 79.776 29.43 79.776 32.512C79.776 35.567 82.178 37.83 85.106 37.83C88.05 37.83 90.436 35.58 90.436 32.512C90.436 29.43 88.05 27.195 85.106 27.195ZM85.106 35.723C83.496 35.723 82.109 34.389 82.109 32.5C82.109 30.583 83.499 29.277 85.106 29.277C86.716 29.277 88.103 30.583 88.103 32.5C88.106 34.401 86.716 35.723 85.106 35.723ZM73.477 27.195C70.534 27.195 68.147 29.43 68.147 32.512C68.147 35.567 70.549 37.83 73.477 37.83C76.421 37.83 78.807 35.58 78.807 32.512C78.807 29.43 76.418 27.195 73.477 27.195ZM73.477 35.723C71.867 35.723 70.481 34.389 70.481 32.5C70.481 30.583 71.871 29.277 73.477 29.277C75.087 29.277 76.474 30.583 76.474 32.5C76.474 34.401 75.088 35.723 73.477 35.723ZM59.64 28.82V31.07H65.039C64.874 32.333 64.456 33.265 63.818 33.904C63.027 34.696 61.805 35.556 59.653 35.556C56.335 35.556 53.741 32.876 53.741 29.556C53.741 26.236 56.335 23.555 59.653 23.555C61.444 23.555 62.749 24.262 63.718 25.166L65.313 23.57C63.967 22.28 62.176 21.292 59.665 21.292C55.115 21.292 51.295 25.001 51.295 29.542C51.295 34.097 55.111 37.794 59.665 37.794C62.123 37.794 63.967 36.99 65.425 35.474C66.911 33.988 67.381 31.89 67.381 30.197C67.381 29.671 67.341 29.197 67.257 28.795H59.637C59.64 28.792 59.64 28.82 59.64 28.82ZM116.238 30.571C115.792 29.378 114.446 27.183 111.686 27.183C108.951 27.183 106.678 29.337 106.678 32.501C106.678 35.487 108.927 37.819 111.951 37.819C114.381 37.819 115.795 36.332 116.378 35.459L114.574 34.249C113.976 35.139 113.144 35.721 111.964 35.721C110.771 35.721 109.936 35.179 109.381 34.109L116.487 31.164C116.487 31.167 116.237 30.571 116.237 30.571H116.238ZM108.992 32.348C108.936 30.294 110.587 29.25 111.767 29.25C112.699 29.25 113.475 29.708 113.739 30.375L108.992 32.348ZM103.22 37.5H105.553V21.877H103.22V37.5ZM99.388 28.376H99.304C98.778 27.749 97.778 27.182 96.501 27.182C93.85 27.182 91.408 29.517 91.408 32.516C91.408 35.502 93.838 37.809 96.501 37.809C97.762 37.809 98.778 37.239 99.304 36.599H99.388V37.363C99.388 39.393 98.304 40.486 96.557 40.486C95.127 40.486 94.239 39.458 93.877 38.597L91.85 39.445C92.432 40.848 93.987 42.585 96.554 42.585C99.289 42.585 101.606 40.973 101.606 37.042V27.5H99.401V28.376H99.388ZM96.709 35.723C95.099 35.723 93.753 34.377 93.753 32.516C93.753 30.639 95.099 29.28 96.709 29.28C98.304 29.28 99.541 30.655 99.541 32.516C99.557 34.376 98.307 35.723 96.709 35.723ZM127.162 21.877H121.583V37.5H123.916V31.584H127.166C129.747 31.584 132.286 29.71 132.286 26.736C132.286 23.762 129.756 21.876 127.162 21.876V21.877ZM127.231 29.401H123.913V24.04H127.231C128.978 24.04 129.966 25.483 129.966 26.72C129.966 27.946 128.966 29.401 127.231 29.401ZM141.638 27.166C139.943 27.166 138.195 27.918 137.473 29.554L139.541 30.414C139.987 29.554 140.803 29.261 141.666 29.261C142.874 29.261 144.096 29.984 144.123 31.275V31.44C143.706 31.203 142.79 30.842 141.693 30.842C139.46 30.842 137.196 32.064 137.196 34.355C137.196 36.453 139.027 37.799 141.068 37.799C142.634 37.799 143.498 37.092 144.036 36.272H144.12V37.482H146.37V31.496C146.37 28.709 144.3 27.166 141.638 27.166ZM141.345 35.723C140.582 35.723 139.513 35.349 139.513 34.389C139.513 33.179 140.846 32.721 141.983 32.721C143.011 32.721 143.497 32.943 144.108 33.248C143.94 34.651 142.756 35.711 141.345 35.723ZM154.575 27.5L151.895 34.277H151.811L149.036 27.5H146.525L150.69 36.973L148.316 42.238H150.746L157.154 27.5H154.574H154.575ZM133.573 37.5H135.906V21.877H133.573V37.5Z" fill="white"/>
    <path class="hero__svg-blue" fill-rule="evenodd" clip-rule="evenodd" d="M13.033 9.41697C12.672 9.80697 12.463 10.402 12.463 11.181V38.821C12.463 39.601 12.672 40.196 13.046 40.571L13.142 40.655L28.618 25.168V24.822L13.13 9.33197L13.033 9.41697V9.41697Z" fill="#00D2FF"/>
    <path fill-rule="evenodd" clip-rule="evenodd" d="M33.767 30.346L28.605 25.181V24.819L33.767 19.654L33.879 19.723L39.985 23.195C41.732 24.18 41.732 25.807 39.985 26.805L33.879 30.277L33.767 30.346Z" fill="#FFBD00"/>
    <path fill-rule="evenodd" clip-rule="evenodd" d="M33.88 30.277L28.604 25L13.033 40.583C13.603 41.193 14.56 41.263 15.628 40.667L33.879 30.277" fill="#FF3A44"/>
    <path fill-rule="evenodd" clip-rule="evenodd" d="M33.88 19.723L15.627 9.34901C14.559 8.73801 13.599 8.82201 13.032 9.43301L28.605 25L33.879 19.723H33.88Z" fill="#06E775"/>
    <path opacity="0.2" d="M33.767 30.165L15.641 40.471C14.628 41.054 13.725 41.013 13.142 40.483L13.046 40.58L13.142 40.664C13.725 41.191 14.628 41.234 15.641 40.651L33.891 30.277L33.767 30.165Z" fill="black"/>
    <path opacity="0.12" d="M39.985 26.624L33.751 30.165L33.864 30.277L39.969 26.805C40.844 26.306 41.274 25.651 41.274 25C41.221 25.599 40.776 26.166 39.984 26.624H39.985Z" fill="black"/>
    <path opacity="0.25" fill-rule="evenodd" clip-rule="evenodd" d="M15.628 9.52999L39.985 23.376C40.775 23.822 41.221 24.405 41.29 25C41.29 24.349 40.86 23.694 39.985 23.195L15.628 9.34999C13.881 8.34899 12.463 9.18399 12.463 11.182V11.363C12.463 9.36199 13.881 8.54299 15.628 9.52999Z" fill="white"/>
    <defs>
      <linearGradient xmlns="http://www.w3.org/2000/svg" id="paint0_linear_1_72" x1="22.32" y1="10.8825" x2="9.04405" y2="24.1673" gradientUnits="userSpaceOnUse">
        <stop offset="0.00650" stop-color="#00A0FF"/>
        <stop offset="0.00657" stop-color="#00A1FF"/>
        <stop offset="0.2601" stop-color="#00BEFF"/>
        <stop offset="0.5122" stop-color="#00D2FF"/>
        <stop offset="0.7604" stop-color="#00DFFF"/>
        <stop offset="1" stop-color="#00E3FF"/>
      </linearGradient>
      <linearGradient id="paint1_linear_1_72" x1="42.2635" y1="25" x2="12.0376" y2="25" gradientUnits="userSpaceOnUse">
        <stop stop-color="#FFE000"/>
        <stop offset="0.4087" stop-color="#FFBD00"/>
        <stop offset="0.7754" stop-color="#FFA500"/>
        <stop offset="1" stop-color="#FF9C00"/>
      </linearGradient>
      <linearGradient id="paint2_linear_1_72" x1="31.0121" y1="29.9649" x2="8.34546" y2="52.6485" gradientUnits="userSpaceOnUse">
        <stop stop-color="#FF3A44"/>
        <stop offset="1" stop-color="#C31162"/>
      </linearGradient>
      <linearGradient id="paint3_linear_1_72" x1="9.11028" y1="7.01658" x2="19.2273" y2="17.142" gradientUnits="userSpaceOnUse">
        <stop stop-color="#32A071"/>
        <stop offset="0.0685" stop-color="#2DA771"/>
        <stop offset="0.4762" stop-color="#15CF74"/>
        <stop offset="0.8009" stop-color="#06E775"/>
        <stop offset="1" stop-color="#00F076"/>
      </linearGradient>
    </defs>
  </symbol>
  <symbol viewBox="0 0 193 70" id="cashback-booking-logo">
    <path fill-rule="evenodd" clip-rule="evenodd" d="M110.349 27.115C112.676 27.115 114.11 27.935 114.91 28.625L115.138 28.824L115.275 28.558C115.638 27.875 116.361 27.501 117.3 27.501H119.604L119.584 43.405C119.584 49.468 114.66 51.624 110.442 51.624C108.394 51.624 106.127 51.072 104.387 50.151L104.041 49.968L104.597 48.548L104.99 47.578C105.417 46.526 106.031 46.265 107.083 46.581C107.888 46.872 109.091 47.194 110.413 47.194C113.133 47.194 114.636 45.915 114.636 43.601V43.119L114.253 43.405C113.263 44.152 112.019 44.518 110.442 44.518C105.825 44.518 102.6 40.913 102.6 35.752C102.6 30.587 105.718 27.115 110.349 27.115ZM137.559 27.21C140.114 27.21 143.916 28.293 143.916 31.275V33.535L141.324 33.531C141.107 33.531 140.004 33.467 139.639 32.254L139.617 32.165C139.457 31.63 138.447 31.311 137.559 31.311C134.821 31.311 132.909 33.327 132.909 36.207C132.909 39.544 135.374 41.041 137.818 41.041C140.335 41.041 142.281 39.15 142.52 38.906L142.544 38.881L142.814 38.594L144.867 41.991L144.731 42.159C144.707 42.188 142.154 45.269 137.458 45.269C132.046 45.269 128.123 41.475 128.123 36.242C128.123 31.012 132.088 27.21 137.559 27.21ZM28.742 27.193C34.015 27.193 37.842 30.97 37.842 36.173C37.842 41.375 34.015 45.153 28.742 45.153C23.488 45.153 19.676 41.375 19.676 36.173C19.676 30.97 23.488 27.193 28.742 27.193ZM48.195 27.193C53.462 27.193 57.297 30.97 57.297 36.173C57.297 41.375 53.462 45.153 48.195 45.153C42.936 45.153 39.124 41.375 39.124 36.173C39.124 30.97 42.936 27.193 48.194 27.193H48.195ZM154.355 27.193C159.621 27.193 163.455 30.97 163.455 36.173C163.455 41.375 159.621 45.153 154.355 45.153C149.097 45.153 145.285 41.375 145.285 36.173C145.285 30.97 149.097 27.193 154.355 27.193ZM124.425 39.313C126.017 39.313 127.311 40.605 127.311 42.2C127.311 43.792 126.017 45.085 124.424 45.085C122.837 45.085 121.547 43.792 121.547 42.2C121.547 40.605 122.837 39.312 124.424 39.312L124.425 39.313ZM79.003 27.547C80.759 27.547 81.609 28.407 81.609 30.179L81.599 44.877H81.589V44.883H80.429L79.262 44.887C79.231 44.887 79.204 44.883 79.172 44.883H76.667V40.953H76.669L76.655 27.547H79.004H79.003ZM61.42 20.878C62.79 20.878 64.06 21.155 64.06 23.19V33.362H64.855C65.451 33.362 65.849 33.215 66.045 32.927L69.529 27.547H75.157L70.52 34.425C70.283 34.774 70.036 35.075 69.796 35.328L69.628 35.488L69.788 35.656C70.036 35.914 70.271 36.24 70.475 36.623L72.363 40.189L75.208 44.889H71.385C69.945 44.889 69.181 44.647 68.411 43.242L65.661 38.059C65.483 37.752 65.096 37.686 64.528 37.686H64.06V44.888H59.075L59.069 20.879H61.419L61.42 20.878ZM94.683 27.153C98.737 27.153 100.879 29.47 100.879 33.853L100.887 44.882H98.529C96.729 44.882 95.896 44.04 95.896 42.245V34.693C95.896 32.588 95.293 31.773 93.746 31.773C91.825 31.773 90.286 32.937 89.736 34.81C89.528 35.428 89.427 36.106 89.427 36.889V44.882H84.475L84.461 27.54H86.695C88.047 27.54 88.945 28.101 89.21 29.12L89.318 29.534L89.621 29.23C90.527 28.28 92.146 27.153 94.683 27.153ZM185.578 27.209L185.81 27.213C189.481 27.303 191.346 29.537 191.346 33.852L191.341 44.877H189.115C187.367 44.877 186.589 44.099 186.589 42.353V34.639C186.589 32.428 186.049 31.604 184.594 31.604C182.581 31.604 181.284 33.407 180.902 35.168C180.715 35.792 180.636 36.418 180.636 37.253V44.877H175.872V34.639C175.872 32.721 175.244 31.729 173.959 31.607C171.873 31.409 170.63 33.39 170.179 35.233C170.013 35.924 169.929 36.587 169.929 37.253V44.877H165.2L165.22 27.605H167.301C168.599 27.605 169.457 28.133 169.717 29.095L169.899 29.762L170.368 29.254C171.086 28.494 172.628 27.21 174.931 27.21C177.127 27.21 178.705 28.058 179.622 29.727L179.903 30.235L180.262 29.781C181.537 28.171 183.525 27.211 185.58 27.211L185.578 27.209ZM4.68101 20.888H9.86101C14.401 20.888 17.333 23.325 17.333 27.098C17.333 29.564 16.093 30.991 15.353 31.626L14.717 32.169L15.446 32.579C17.215 33.572 18.266 35.526 18.266 37.814C18.266 42.058 15.011 44.8 9.96401 44.8L4.04101 44.801L4.03101 44.8H1.65401V23.38C1.66701 22.029 2.74601 20.935 4.09201 20.888H4.68101ZM28.742 31.395C26.258 31.395 24.534 33.362 24.534 36.174C24.534 38.984 26.258 40.954 28.742 40.954C31.275 40.954 32.984 39.03 32.984 36.174C32.984 33.362 31.24 31.394 28.742 31.394V31.395ZM48.195 31.395C45.712 31.395 43.984 33.362 43.984 36.174C43.984 38.984 45.712 40.954 48.194 40.954C50.728 40.954 52.437 39.03 52.437 36.174C52.437 33.362 50.687 31.394 48.195 31.394V31.395ZM154.355 31.395C151.872 31.395 150.142 33.362 150.142 36.174C150.142 38.984 151.872 40.954 154.354 40.954C156.887 40.954 158.599 39.03 158.599 36.174C158.599 33.362 156.847 31.394 154.354 31.394L154.355 31.395ZM10.295 34.253H7.54801C6.66501 34.377 6.26501 34.91 6.26501 35.939V40.75L10.296 40.755C12.291 40.754 13.528 39.538 13.528 37.488C13.528 35.488 12.258 34.253 10.296 34.253H10.295ZM111.059 31.475C107.896 31.475 107.649 34.65 107.649 35.623C107.649 37.831 108.613 40.189 111.319 40.189C112.874 40.189 114.728 39.426 114.728 35.786C114.728 31.927 112.633 31.476 111.059 31.476V31.475ZM9.82901 24.808H7.76601C6.73601 24.876 6.26501 25.402 6.26501 26.511V30.554H9.89301C11.932 30.554 12.658 28.981 12.658 27.633C12.658 25.866 11.598 24.808 9.82801 24.808H9.82901ZM78.937 20.126C80.53 20.126 81.825 21.416 81.825 23.012C81.825 24.604 80.53 25.895 78.937 25.895C77.348 25.895 76.059 24.604 76.059 23.012C76.059 21.417 77.349 20.126 78.937 20.126Z" fill="#222222"/>
  </symbol>
  <symbol viewBox="0 0 192 70" id="cashback-aliexpress-logo">
    <path fill-rule="evenodd" clip-rule="evenodd" d="M49.237 45.7149V16.7669H66.226V20.3959H52.755V29.2959H64.853V32.9259H52.755V41.9989H67.17V45.6279H49.237V45.7149ZM85.017 45.7149L79.182 38.0249L73.347 45.7149H69.23L77.209 35.4319L68.8 24.8029H73.434L79.182 32.7539L85.017 24.8029H89.564L81.585 35.4319L89.136 45.7149H85.017ZM94.799 42.6039V56.8619H91.281V35.5179C91.281 30.0739 95.399 24.2849 101.835 24.2849C108.355 24.2849 113.246 28.4329 113.246 35.2589C113.246 41.9129 108.27 46.4929 102.607 46.4929C99.861 46.4929 96.172 45.2829 94.799 42.6039ZM109.557 35.2589C109.557 30.5929 106.554 27.8289 101.234 28.0869C98.66 28.1739 94.714 30.0739 95.056 36.7289C95.142 38.8889 97.373 42.9489 102.264 42.9489C106.468 42.9489 109.557 40.5299 109.557 35.2589ZM116.25 45.7149V24.8029H119.768V27.0499C121.484 25.0619 124.143 24.3709 126.975 24.3709V28.1739C126.546 28.0869 122.341 27.5679 119.768 33.0989V45.8019H116.25V45.7149ZM127.919 35.2599C127.919 29.2099 132.209 24.2849 138.129 24.2849C145.509 24.2849 148.254 29.2109 148.254 35.5179V37.2469H131.78C132.037 41.2219 135.555 43.2949 138.816 43.2089C141.218 43.1229 142.849 42.4319 144.566 40.7039L146.882 43.1239C144.737 45.1969 141.991 46.5789 138.645 46.5789C132.381 46.4929 127.919 41.8259 127.919 35.2589V35.2599ZM137.872 27.8289C134.526 27.8289 131.952 30.7649 131.78 33.9639H144.565C144.565 30.8519 142.335 27.8279 137.872 27.8279V27.8289ZM150.057 42.7769L152.63 40.4439C152.545 40.4439 153.918 41.8269 154.09 41.9129C154.69 42.4319 155.29 42.7769 156.063 42.9499C158.293 43.5549 162.326 43.3819 162.67 40.2709C162.841 38.5429 161.554 37.5919 160.096 36.9869C158.208 36.2969 156.148 36.0369 154.261 35.1729C152.115 34.2229 150.744 32.5809 150.744 30.1619C150.744 23.8519 159.666 22.8159 163.699 25.7539C163.871 25.9269 165.844 27.7409 165.759 27.7409L163.184 29.8159C161.898 28.2599 160.696 27.4819 157.951 27.4819C156.578 27.4819 154.69 28.0869 154.347 29.5559C153.832 31.6299 156.148 32.4079 157.693 32.8399C159.753 33.3579 161.983 33.7039 163.785 34.8269C166.274 36.3829 166.875 39.7519 165.93 42.3449C164.9 45.1969 161.811 46.3199 159.066 46.4049C155.806 46.5789 152.974 45.5419 150.657 43.2099C150.485 43.2099 150.057 42.7769 150.057 42.7769ZM168.161 42.7769L170.736 40.4439C170.65 40.4439 172.022 41.8269 172.194 41.9129C172.794 42.4319 173.396 42.7769 174.167 42.9499C176.397 43.5549 180.432 43.3819 180.775 40.2709C180.945 38.5429 179.659 37.5919 178.2 36.9869C176.312 36.2969 174.253 36.0369 172.366 35.1729C170.221 34.2229 168.848 32.5809 168.848 30.1619C168.848 23.8519 177.772 22.8159 181.804 25.7539C181.976 25.9269 183.949 27.7409 183.864 27.7409L181.29 29.8159C180.002 28.2599 178.8 27.4819 176.055 27.4819C174.682 27.4819 172.795 28.0869 172.451 29.5559C171.937 31.6299 174.253 32.4079 175.797 32.8399C177.857 33.3579 180.089 33.7039 181.89 34.8269C184.378 36.3829 184.98 39.7519 184.035 42.3449C183.005 45.1969 179.917 46.3199 177.17 46.4049C173.91 46.5789 171.079 45.5419 168.762 43.2099C168.59 43.2099 168.162 42.7769 168.162 42.7769H168.161ZM184.893 24.8029V22.5559H184.121V22.1239H186.18V22.5559H185.408V24.8029H184.893ZM188.754 24.8029V22.7299L187.982 24.8029H187.81L187.038 22.7299V24.8029H186.609V22.1239H187.296L187.982 23.9399L188.669 22.1239H189.355V24.8029H188.754ZM25.383 45.7149L22.809 38.8019H8.90899L6.33399 45.7149H2.64499L13.8 16.7669H17.832L28.902 45.7149H25.383ZM15.687 20.9149L10.454 35.2599H21.35L15.687 20.9149ZM31.218 45.7149H34.822V16.7679H31.218V45.7149ZM40.227 45.7149H43.831V25.2359H40.227V45.7149ZM47.263 18.5819V18.2359C44.518 18.1499 42.286 15.9029 42.201 13.1379H41.686C41.6 15.9029 39.369 18.1499 36.624 18.2359V18.5819C39.369 18.6679 41.6 20.9149 41.686 23.6799H42.201C42.286 20.9149 44.518 18.6679 47.263 18.5819Z" fill="#222222"/>
  </symbol>
  <symbol viewBox="0 0 192 70" id="cashback-allegro-logo">
    <path fill-rule="evenodd" clip-rule="evenodd" d="M73.223 32.909C73.391 29.156 76.563 26.249 80.305 26.419L80.406 26.424C83.732 26.22 86.593 28.758 86.796 32.092C86.813 32.364 86.811 32.637 86.791 32.909H73.223ZM80.395 20.539C71.415 20.539 67.483 26.577 66.227 31.685C65.882 33.062 65.709 34.477 65.711 35.898C65.663 39.262 66.673 42.556 68.598 45.312C71.514 49.072 75.997 51.273 80.747 51.278C85.595 51.455 88.834 50.631 91.311 49.22C91.806 48.898 92.041 48.297 91.898 47.725V43.805C91.898 43.006 91.417 42.629 90.724 43.111C87.824 44.974 84.385 45.804 80.958 45.465C76.92 45.412 73.556 42.347 73.118 38.322H93.071C93.521 38.322 93.887 37.96 93.894 37.509C94.245 32.037 92.66 20.539 80.395 20.539ZM32.035 45.912H23.267C22.142 45.88 21.056 45.497 20.157 44.817C19.219 44.157 18.669 43.073 18.69 41.923C18.69 40.333 19.758 37.157 25.098 37.157H32.036V45.912H32.035ZM38.55 32.862C38.55 28.849 37.659 25.8 35.732 23.694C33.808 21.588 29.934 20.54 26.342 20.54C22.738 20.526 19.193 21.472 16.072 23.282C15.874 23.4 15.752 23.615 15.756 23.847L16.026 28.272C16.1 28.701 16.508 28.988 16.936 28.912C17.077 28.888 17.209 28.825 17.316 28.731C21.718 26.013 27 25.506 29.688 26.871C31.195 27.741 32.098 29.377 32.036 31.121V31.767H24.699C21.542 31.767 11.87 32.944 11.87 41.852V41.947C11.718 44.696 12.882 47.354 15.004 49.101C17.29 50.716 20.054 51.508 22.844 51.349H37.694C38.173 51.349 38.562 50.959 38.562 50.479V32.826L38.55 32.861V32.862ZM112.286 45.395C108.659 45.395 106.041 42.735 104.938 39.428C104.158 37.139 104.158 34.656 104.938 32.367C106.041 29.06 108.659 26.401 112.286 26.401C120.396 26.401 120.666 34.697 120.666 35.898C120.666 37.098 120.396 45.395 112.286 45.395ZM127.322 35.909C127.386 32.543 126.374 29.244 124.435 26.495C119.229 19.768 109.57 18.545 102.86 23.765C101.842 24.557 100.928 25.474 100.137 26.495C96.232 32.161 96.232 39.658 100.137 45.324C103.006 49.142 107.519 51.358 112.287 51.291C115.364 51.301 118.377 50.391 120.937 48.678V52.397C120.937 57.445 116.535 58.363 113.717 58.539C111.779 58.604 109.839 58.498 107.919 58.222C107.145 58.104 106.605 58.222 106.605 59.057V63.529C106.625 63.952 106.981 64.279 107.402 64.259H107.403C113.941 64.824 118.343 64.706 121.653 62.812C123.971 61.437 125.693 59.241 126.477 56.657C127.062 54.663 127.343 52.592 127.31 50.514V35.909H127.322ZM148.932 22.269V25.8C148.998 26.303 148.646 26.765 148.145 26.833C148.015 26.85 147.882 26.839 147.757 26.801C142.052 25.624 138.543 28.166 138.543 33.451V50.514C138.543 50.994 138.153 51.384 137.675 51.384H132.627C132.147 51.384 131.759 50.994 131.759 50.514V33.085C131.698 29.751 133.049 26.547 135.479 24.271C137.947 21.852 141.266 20.507 144.717 20.528C145.899 20.531 147.077 20.641 148.238 20.858C148.837 21.058 148.931 21.411 148.931 22.318V22.27L148.932 22.269ZM49.958 50.515C49.958 50.995 49.568 51.385 49.089 51.385H44.042C43.562 51.385 43.173 50.995 43.173 50.515V8.91497C43.173 8.43797 43.555 8.04897 44.03 8.04297H49.077C49.557 8.04297 49.947 8.43297 49.947 8.91497V50.515H49.957H49.958ZM61.813 50.515C61.813 50.995 61.423 51.385 60.945 51.385H55.897C55.417 51.385 55.028 50.995 55.028 50.515V8.91497C55.028 8.43297 55.418 8.04297 55.897 8.04297H60.945C61.424 8.04297 61.813 8.43297 61.813 8.91497V50.515ZM172.441 39.453C171.337 42.76 168.719 45.336 165.093 45.419C161.465 45.502 158.848 42.759 157.756 39.453C156.976 37.163 156.976 34.68 157.756 32.392C158.86 29.085 161.477 26.507 165.093 26.425C168.708 26.343 171.337 29.085 172.441 32.392C173.217 34.677 173.217 37.156 172.441 39.441V39.453ZM177.253 26.507C172.047 19.781 162.388 18.559 155.678 23.777C154.661 24.57 153.746 25.487 152.956 26.507C151.029 29.264 150.019 32.557 150.068 35.922C150.019 39.287 151.029 42.581 152.956 45.336C158.162 52.063 167.821 53.286 174.53 48.066C175.548 47.275 176.463 46.358 177.253 45.336C179.178 42.581 180.189 39.286 180.141 35.922C180.189 32.558 179.178 29.264 177.253 26.507Z" fill="#222222"/>

  </symbol>
  <symbol viewBox="0 0 192 70" id="cashback-zalando-logo">
    <path fill-rule="evenodd" clip-rule="evenodd" d="M68.344 30.2381H56.493C56.097 30.2381 55.798 29.9361 55.798 29.5371V28.0781C55.79 27.7231 55.903 27.5621 56.121 27.2901L65.554 16.2351H56.31C55.916 16.2351 55.617 15.9321 55.616 15.5351V14.5021C55.617 14.1021 55.916 13.8031 56.31 13.8011H68.282C68.678 13.8031 68.977 14.1021 68.977 14.5021V15.9901C68.983 16.2581 68.892 16.4861 68.678 16.7271L59.221 27.8031H68.343C68.739 27.8041 69.037 28.1061 69.038 28.5041V29.5371C69.038 29.9361 68.738 30.2381 68.343 30.2381H68.344ZM91.705 30.5421H91.708C92.556 30.5251 93.183 30.3551 93.429 30.0781C93.516 29.9781 93.559 29.8651 93.547 29.7541C93.541 29.6611 93.541 29.6611 93.308 28.5611L93.303 28.5341C93.25 28.2471 93.049 28.1161 92.88 28.1161L92.858 28.1171C92.858 28.1171 92.644 28.1071 92.434 28.1071H92.431C91.826 28.0891 91.326 27.9991 91.315 27.1071V8.43612C91.315 8.12512 91.129 7.80812 90.771 7.79812L90.666 7.79912L89.011 8.22512C88.729 8.25512 88.436 8.45712 88.448 8.83212V27.1681C88.451 29.3411 89.608 30.5381 91.705 30.5431V30.5421ZM125.159 30.2381H123.68C123.285 30.2381 122.986 29.9361 122.984 29.5371V18.2981C122.959 16.3981 122.396 15.8681 120.364 15.8381C118.064 15.8381 115.74 16.4201 114.974 16.6311V29.5371C114.972 29.9431 114.694 30.2381 114.309 30.2381H112.801C112.406 30.2381 112.108 29.9361 112.107 29.5371V16.9321C112.085 15.7651 112.194 14.9581 113.84 14.4221C115.417 13.8721 118.433 13.4071 120.427 13.4061C124.223 13.4111 125.847 14.7931 125.851 18.0241V29.5371C125.851 29.9361 125.551 30.2381 125.158 30.2381H125.159ZM139.998 16.3001C139.448 16.1591 137.908 15.8101 136.174 15.8101C132.992 15.8391 131.656 16.7101 131.624 22.0351C131.66 27.8821 133.386 28.1981 136.204 28.2281V28.3521V28.2281C137.957 28.2281 139.462 27.8601 139.996 27.7121L139.998 16.3001ZM140.774 30.0191L140.599 30.0641C139.659 30.3041 138.372 30.6331 136.114 30.6331H136.111C129.894 30.6241 128.672 27.4611 128.666 22.0041C128.675 15.7441 130.643 13.4141 135.928 13.4061C137.794 13.4061 139.08 13.6491 140.002 13.8741L139.996 8.83312C139.989 8.61012 140.088 8.32112 140.606 8.22112L142.258 7.79712H142.348C142.729 7.80712 142.862 8.14712 142.863 8.43512V27.3821C142.888 28.5761 142.748 29.6021 140.774 30.0191ZM152.829 28.1991C148.756 28.1811 148.552 26.0731 148.523 22.0351C148.552 17.9761 148.755 15.8581 152.829 15.8391C156.905 15.8591 157.109 17.9761 157.137 22.0321C157.108 26.0721 156.905 28.1811 152.829 28.1981V28.1991ZM152.829 13.4061C146.112 13.4161 145.542 17.8631 145.536 22.0351C145.542 26.1891 146.112 30.6251 152.829 30.6331H152.831C159.542 30.6241 160.115 26.2031 160.125 22.0351C160.117 17.6741 159.548 13.4151 152.829 13.4051V13.4061ZM106.269 22.1221C105.595 22.1301 102.332 22.1821 101.03 22.4631L100.93 22.4861C99.47 22.8151 98.315 23.0731 98.302 25.2541C98.305 27.9961 100.387 28.2421 102.519 28.2601L102.521 28.3831V28.2601C103.857 28.2601 105.116 28.0681 106.268 27.6931V22.1221H106.269ZM109.15 18.1161V26.8331C109.18 29.0031 108.626 29.6931 106.462 30.2001C105.513 30.3981 104.061 30.6311 102.488 30.6331C100.168 30.6271 95.346 30.6181 95.344 25.3751C95.328 21.2461 97.79 20.5281 100.763 20.0681C102.712 19.7531 104.693 19.7061 105.7 19.7061C105.972 19.7061 106.15 19.7081 106.253 19.7111V18.2371C106.243 17.2531 106.239 16.6571 105.324 16.3091C104.764 16.0711 103.923 15.9601 102.676 15.9601C100.619 15.9601 98.776 16.4261 97.558 16.7341L97.092 16.8441C97.042 16.8571 96.988 16.8691 96.918 16.8741C96.702 16.8741 96.468 16.7441 96.381 16.4591L96.374 16.4331L96.098 15.0291V14.9581C96.102 14.6261 96.338 14.4321 96.56 14.3621C97.544 13.9921 100.142 13.4071 102.94 13.4061C104.986 13.4071 106.462 13.6751 107.456 14.2251C109.156 15.1311 109.153 16.7861 109.15 18.1151V18.1161ZM82.154 27.6931C81.002 28.0681 79.742 28.2601 78.406 28.2601V28.3831L78.405 28.2601C76.273 28.2421 74.191 27.9961 74.188 25.2541C74.202 23.0741 75.356 22.8141 76.817 22.4861L76.919 22.4631C78.218 22.1821 81.481 22.1301 82.154 22.1221V27.6931ZM83.341 14.2251C82.348 13.6751 80.872 13.4071 78.827 13.4051C76.029 13.4071 73.431 13.9921 72.448 14.3621C72.225 14.4321 71.988 14.6261 71.984 14.9581L71.985 15.0291L72.26 16.4331L72.267 16.4591C72.353 16.7451 72.59 16.8731 72.804 16.8731H72.805C72.874 16.8691 72.929 16.8571 72.979 16.8451L73.444 16.7351C74.664 16.4251 76.504 15.9601 78.562 15.9601C79.81 15.9601 80.649 16.0711 81.212 16.3101C82.125 16.6581 82.129 17.2531 82.141 18.2371V19.7111C82.034 19.7081 81.859 19.7061 81.588 19.7061C80.58 19.7061 78.598 19.7531 76.65 20.0681C73.676 20.5281 71.216 21.2461 71.23 25.3751C71.233 30.6181 76.056 30.6271 78.374 30.6331C79.948 30.6311 81.4 30.3981 82.348 30.2001C84.512 29.6931 85.064 29.0021 85.035 26.8331V18.1161C85.038 16.7861 85.043 15.1311 83.341 14.2251Z" fill="#222222"/>
    <path fill-rule="evenodd" clip-rule="evenodd" d="M144.503 48.9712C144.473 47.8412 144.41 46.7452 144.131 45.6472C143.632 43.7022 142.481 43.1082 140.149 43.1082C137.756 43.1082 136.636 43.7362 136.138 45.6482C135.858 46.7142 135.827 47.8722 135.797 49.0022L144.503 48.9722V48.9712ZM147.457 49.1902V50.7262C147.457 50.9462 147.241 51.1962 147.022 51.1962H135.827C135.827 52.8582 136.168 53.7972 136.883 54.5812C137.756 55.5862 139.185 55.9312 141.238 55.9312C143.166 55.9312 144.41 55.5212 145.748 55.1452C145.811 55.1152 145.873 55.1152 145.935 55.1152C146.091 55.1152 146.183 55.2092 146.275 55.4282L146.618 56.7132C146.65 56.7452 146.65 56.8082 146.65 56.8392C146.65 57.0272 146.525 57.1542 146.308 57.2162C145.093 57.7162 143.042 58.1562 140.896 58.1562C134.801 58.1562 132.841 55.3972 132.841 49.5352C132.841 44.1112 134.055 40.8822 140.181 40.8822C143.415 40.8822 145.311 41.8552 146.368 43.5472C147.241 44.9902 147.457 46.9332 147.457 49.1902ZM126.898 55.3962C126.898 55.3962 125.156 55.9612 123.012 55.9612C119.995 55.9612 118.347 55.3332 118.347 49.5342C118.347 44.1422 119.747 43.1072 122.98 43.1072C125.065 43.1072 126.898 43.6082 126.898 43.6082V55.3962ZM129.761 58.8202V44.0802C129.761 42.9202 129.668 42.0122 127.739 41.5402C126.619 41.2572 124.97 40.8822 122.763 40.8822C117.165 40.8822 115.363 43.3592 115.363 49.5662C115.363 55.2092 116.668 58.1562 122.671 58.1562C124.91 58.1562 126.002 57.8652 126.998 57.6122L126.888 57.7622V60.1812C126.802 62.0912 125.921 63.5822 122.57 63.5822C120.09 63.5822 118.635 62.8802 117.939 61.2432C117.839 61.0992 117.666 61.0492 117.466 61.1312L115.972 61.7302C115.731 61.8272 115.668 62.0222 115.752 62.2402L115.746 62.2472C116.536 64.6082 118.579 65.8642 122.57 65.8642C128.76 65.8642 129.763 62.6412 129.763 59.3512V58.8212H129.761V58.8202ZM112.281 45.4602V57.2792C112.281 57.5592 112.124 57.7472 111.815 57.7472H109.888C109.577 57.7472 109.389 57.5592 109.389 57.2792V45.8032C109.389 43.7982 108.645 43.1082 106.624 43.1082C103.979 43.1082 101.273 43.8922 101.273 43.8922V57.2802C101.273 57.5602 101.118 57.7482 100.807 57.7482H98.8779C98.5679 57.7482 98.3799 57.5602 98.3799 57.2802V44.1432C98.3799 42.9192 98.5679 42.3872 100.185 41.8552C101.801 41.3222 104.785 40.8822 106.778 40.8822C110.51 40.8822 112.282 42.0122 112.282 45.4602H112.281ZM94.8079 40.8802H94.6849L92.6919 41.3522C92.4139 41.3822 92.2589 41.5082 92.2589 41.8222L92.2889 51.9482C92.2889 54.1412 91.9159 55.9612 88.2139 55.9612C85.1039 55.9612 84.1399 54.7362 84.1399 52.0112V41.3232C84.1399 41.1032 84.0489 40.8832 83.7999 40.8832H83.7059L81.6839 41.3232C81.4339 41.3852 81.2479 41.5102 81.2479 41.7932V51.7622C81.2479 55.9632 82.8329 58.1582 88.2139 58.1582C94.4039 58.1582 95.1489 55.0222 95.1489 51.7302V41.3222C95.1489 41.0712 95.0549 40.8822 94.8079 40.8822V40.8802ZM75.4379 49.5342C75.4379 45.5842 75.2519 43.1072 71.0229 43.1072C66.8239 43.1072 66.6379 45.5842 66.6379 49.5342C66.6379 53.4532 66.8239 55.9302 71.0229 55.9302C75.2519 55.9302 75.4379 53.4532 75.4379 49.5342ZM78.4249 49.5342C78.4249 54.2662 77.6469 58.1562 71.0229 58.1562C64.4299 58.1562 63.6219 54.2662 63.6219 49.5342C63.6219 44.7682 64.4299 40.8812 71.0219 40.8812C77.6469 40.8812 78.4249 44.7682 78.4249 49.5342ZM61.8659 55.6472C61.8359 55.6472 61.8039 55.6782 61.7439 55.6782C61.5559 55.7112 61.0889 55.8042 60.6539 55.8042C60.0319 55.8042 59.2849 55.6162 59.2849 54.4862V35.7202C59.2849 35.4702 59.1929 35.2832 58.9439 35.2832H58.8499L56.8289 35.7512C56.5489 35.7852 56.3939 35.9112 56.3939 36.1912V54.6132C56.3939 56.9652 57.6989 58.0622 59.7819 58.0622C61.0279 58.0622 61.8989 57.7802 62.1469 57.6552C62.2089 57.6552 62.3949 57.5602 62.3949 57.3102V57.2162L62.1149 55.9312C62.0849 55.7112 61.9899 55.6472 61.8659 55.6472Z" fill="#222222"/>
    <path fill-rule="evenodd" clip-rule="evenodd" d="M47.324 19.0502L47.321 19.0512L47.129 18.8382C44.335 15.7492 38.539 12.0132 31.979 12.0132C29.924 12.0132 28.864 17.6502 28.956 22.8772L28.95 22.8762C29.06 27.4942 30.09 31.9202 32.135 31.9202C39.975 31.9202 48.905 24.5962 48.905 21.9712C48.905 21.3142 48.228 20.0472 47.325 19.0502" fill="#222222"/>
  </symbol>
  <symbol viewBox="0 0 192 70" id="cashback-lidl-logo">
    <path fill-rule="evenodd" clip-rule="evenodd" d="M61.174 69.916H130.824V0.0839844H61.174V69.916Z" fill="#222222"/>
    <path fill-rule="evenodd" clip-rule="evenodd" d="M96 4.0271C78.941 4.0271 65.105 17.9001 65.105 35.0101C65.105 52.1021 78.941 65.9761 95.998 65.9761C113.054 65.9761 126.891 52.1021 126.891 35.0101C126.892 17.9001 113.055 4.0271 95.999 4.0271" fill="white"/>
    <path fill-rule="evenodd" clip-rule="evenodd" d="M94.079 35.869L88.63 30.407L82.339 36.719V38.839L83.923 37.243L88.31 41.652L86.692 43.276L87.745 44.342L96.521 35.523V33.414L94.079 35.869ZM68.617 29.253H78.332V31.355H76.712V38.15L82.339 35.01V40.766H68.617V38.655H70.246V31.355H68.617V29.253ZM109.579 29.253V31.355H111.206V38.655H109.579V40.766H123.309V35.01L117.672 38.15V31.355H119.301V29.253H109.579ZM87.824 22.708C89.734 22.708 91.284 24.252 91.284 26.166C91.284 28.082 89.734 29.636 87.824 29.636C85.914 29.636 84.365 28.082 84.365 26.166C84.365 24.251 85.915 22.708 87.825 22.708" fill="#222222"/>
    <path fill-rule="evenodd" clip-rule="evenodd" d="M104.164 29.2532H94.902V31.3552H96.522V38.6552H94.902V40.7652H104.164C111.012 40.7652 111.082 29.2532 104.164 29.2532Z" fill="#222222"/>
    <path fill-rule="evenodd" clip-rule="evenodd" d="M102.863 37.1731H102.403V32.8281H102.793C104.819 32.8281 104.819 37.1831 102.863 37.1731Z" fill="white"/>

  </symbol>
  <symbol viewBox="0 0 192 70" id="cashback-mediamarkt-logo">
    <path fill-rule="evenodd" clip-rule="evenodd" d="M163.098 30.833C163.005 30.721 162.864 30.654 162.715 30.654H160.119C159.883 30.654 159.676 30.819 159.629 31.05L159.427 32.03C158.851 31.514 158.276 31.184 157.452 30.865L157.194 30.752C157.162 30.741 157.131 30.728 157.098 30.722C154.28 30.105 151.447 30.952 149.128 33.106C147.97 34.169 147.092 35.401 146.51 36.727L149.92 22.911C149.95 22.801 149.924 22.681 149.853 22.591C149.783 22.501 149.673 22.448 149.558 22.448H146.398C146.288 22.448 146.188 22.493 146.117 22.575L132.367 38.057C132.849 35.737 135.551 22.898 135.551 22.898C135.551 22.873 135.558 22.845 135.558 22.821C135.558 22.738 135.531 22.652 135.474 22.586C135.404 22.499 135.295 22.448 135.184 22.448H131.694C131.583 22.448 131.479 22.496 131.409 22.575L113.971 42.665C113.678 39.74 112.284 36.555 112.284 36.555C109.947 31.778 104.747 30.231 101.798 32.97L101.778 32.975L101.315 33.31C103.454 29.904 108.882 30.056 112.375 34.066C112.375 34.066 113.928 35.928 115.029 38.698C115.323 37.72 115.503 36.706 115.558 35.67C113.738 33.215 111.688 31.773 111.688 31.773C107.274 28.803 101.991 30.057 100.81 33.9L100.794 33.916L100.566 34.436C100.71 30.416 105.484 27.844 110.518 29.573C110.518 29.573 112.888 30.441 115.28 32.363C115.248 32.21 115.215 32.057 115.173 31.903C114.915 30.888 114.539 29.925 114.056 29.028C111.266 27.823 108.792 27.599 108.792 27.599C103.479 27.231 99.535 30.947 100.439 34.865L100.432 34.886L100.492 35.453C98.604 31.899 101.448 27.293 106.672 26.276C106.672 26.276 109.099 25.856 112.082 26.299C111.326 25.502 110.462 24.804 109.504 24.214C106.513 24.564 104.281 25.597 104.281 25.597C99.498 27.925 97.944 33.114 100.691 36.059L100.694 36.076L101.031 36.539C97.616 34.403 97.771 28.992 101.787 25.506C101.787 25.506 103.664 23.946 106.457 22.84C105.305 22.496 104.11 22.32 102.906 22.313C100.571 24.085 99.209 26.01 99.209 26.01C96.232 30.415 97.489 35.683 101.34 36.863L101.355 36.875L101.878 37.108C97.851 36.964 95.272 32.2 97.004 27.178C97.004 27.178 97.802 25.012 99.562 22.735C98.554 22.996 97.601 23.377 96.707 23.855C95.57 26.56 95.357 28.915 95.357 28.915C94.987 34.215 98.715 38.15 102.643 37.251L102.661 37.256L103.231 37.193C99.669 39.079 95.048 36.241 94.034 31.026C94.034 31.026 93.627 28.696 94.034 25.793C93.185 26.595 92.442 27.516 91.827 28.545C92.208 31.405 93.182 33.507 93.182 33.507C95.517 38.282 100.717 39.831 103.666 37.09L103.688 37.086L104.15 36.752C102.012 40.157 96.583 40.005 93.092 35.995C93.092 35.995 91.302 33.764 90.366 31.165C90.368 31.043 90.331 30.926 90.254 30.833C90.158 30.721 90.018 30.654 89.866 30.654H87.273C87.035 30.654 86.83 30.819 86.78 31.05C86.78 31.05 86.581 31.352 86.49 31.946C85.914 31.432 85.231 31.134 84.608 30.865L84.344 30.752C84.314 30.741 84.281 30.728 84.251 30.722C81.433 30.105 78.601 30.952 76.281 33.106C74.91 34.365 73.926 35.858 73.367 37.471L73.319 37.577L74.422 31.237C74.446 31.094 74.406 30.944 74.31 30.831C74.213 30.719 74.072 30.653 73.926 30.654L71.158 30.658C70.916 30.659 70.708 30.831 70.665 31.071L67.805 46.627C67.78 46.773 67.821 46.924 67.915 47.039C68.01 47.15 68.152 47.215 68.3 47.215L71.217 47.222C71.463 47.222 71.672 47.046 71.712 46.806L72.814 40.476C72.826 40.516 72.836 40.542 72.836 40.542C72.826 41.171 72.878 41.809 72.996 42.446C73.425 44.825 75.539 47.044 77.818 47.496C79.806 47.855 81.932 47.352 84.03 46.06C83.989 46.286 83.923 46.627 83.923 46.627C83.917 46.657 83.915 46.687 83.915 46.719C83.915 46.835 83.955 46.949 84.03 47.039C84.124 47.152 84.266 47.215 84.418 47.215L86.992 47.222C87.234 47.222 87.442 47.052 87.486 46.814L89.752 34.571C91.447 36.579 93.664 38.294 93.664 38.294C98.077 41.266 103.358 40.011 104.539 36.17L104.557 36.153L104.786 35.631C104.642 39.65 99.866 42.226 94.832 40.494C94.832 40.494 92.661 39.698 90.374 37.942C90.393 38.025 90.41 38.111 90.431 38.196C90.703 39.247 91.096 40.245 91.605 41.171C94.265 42.264 96.56 42.471 96.56 42.471C101.87 42.841 105.815 39.122 104.913 35.203L104.92 35.183L104.857 34.614C106.747 38.168 103.902 42.781 98.675 43.791C98.675 43.791 96.392 44.191 93.528 43.804C94.214 44.524 94.986 45.17 95.839 45.724C98.807 45.365 101.005 44.345 101.005 44.345C105.79 42.018 107.346 36.828 104.599 33.886L104.593 33.864L104.257 33.404C107.673 35.539 107.52 40.95 103.503 44.437C103.503 44.437 101.587 46.024 98.755 47.132C99.535 47.395 100.339 47.581 101.152 47.688H102.31C104.689 45.898 106.077 43.932 106.077 43.932C109.057 39.527 107.801 34.257 103.947 33.08L103.932 33.064L103.411 32.834C107.439 32.979 110.019 37.742 108.286 42.766C108.286 42.766 107.42 45.116 105.501 47.499C105.655 47.465 105.803 47.433 105.956 47.393C106.93 47.147 107.846 46.786 108.697 46.348C109.887 43.585 110.107 41.143 110.107 41.143C110.48 35.847 106.751 31.909 102.82 32.81L102.804 32.806L102.235 32.866C105.795 30.982 110.419 33.82 111.435 39.035C111.435 39.035 112.021 41.429 111.582 44.265C111.498 44.675 111.326 45.268 110.994 45.902C110.894 46.078 110.769 46.286 110.617 46.528L110.621 46.521C110.619 46.528 110.613 46.533 110.609 46.541C110.605 46.548 110.605 46.549 110.605 46.555C110.545 46.656 110.533 46.783 110.585 46.895C110.643 47.029 110.777 47.114 110.926 47.111H112.545C113.397 47.107 114.128 47.102 115.101 47.136C115.217 47.138 115.328 47.088 115.402 47.003L129.482 30.209C128.888 33.273 127.203 41.151 125.997 46.682C125.994 46.709 125.991 46.736 125.991 46.762C125.991 46.847 126.019 46.93 126.071 46.996C126.144 47.086 126.251 47.136 126.369 47.136L129.217 47.111C129.325 47.111 129.428 47.065 129.498 46.981C129.498 46.981 142.127 32.244 143.743 30.361C143.07 33.437 141.226 41.207 139.912 46.674C139.902 46.704 139.898 46.73 139.898 46.761C139.898 46.842 139.926 46.925 139.98 46.992C140.052 47.083 140.159 47.136 140.276 47.136H143.644C143.816 47.136 143.969 47.019 144.01 46.849L145.468 40.948L145.671 40.118C145.678 40.355 145.681 40.542 145.681 40.542C145.674 41.171 145.726 41.809 145.844 42.446C146.269 44.825 148.388 47.044 150.663 47.496C152.65 47.855 154.779 47.352 156.876 46.06L156.769 46.627C156.764 46.657 156.76 46.687 156.76 46.719C156.76 46.835 156.8 46.949 156.874 47.039C156.972 47.152 157.114 47.215 157.26 47.215L159.836 47.222C160.081 47.222 160.287 47.052 160.331 46.814L162.657 34.487L163.214 31.165C163.216 31.043 163.178 30.926 163.097 30.833H163.098ZM1.37 46.896V46.586C1.386 46.554 1.405 46.523 1.43 46.496L22.234 22.575C22.306 22.495 22.408 22.447 22.519 22.447H25.877C25.987 22.447 26.093 22.498 26.167 22.585C26.22 22.651 26.251 22.739 26.251 22.82C26.251 22.844 26.246 22.872 26.241 22.897C26.241 22.897 23.636 35.735 23.151 38.057C24.794 36.207 36.903 22.575 36.903 22.575C36.973 22.493 37.077 22.448 37.181 22.448H40.343C40.459 22.448 40.569 22.501 40.64 22.591C40.71 22.681 40.736 22.801 40.706 22.911L37.388 36.351C37.416 36.301 37.439 36.252 37.465 36.206C39.044 33.142 42.045 30.988 45.292 30.592C45.302 30.589 45.315 30.589 45.328 30.589C48.265 30.441 50.532 31.549 51.891 33.789L51.913 33.825C52.401 34.803 52.765 36.118 52.83 37.471C53.385 35.858 54.37 34.365 55.74 33.106C58.06 30.952 60.89 30.105 63.711 30.722C63.74 30.728 63.775 30.741 63.804 30.752L64.066 30.865C64.692 31.134 65.373 31.432 65.949 31.946C66.254 30.515 67.149 26.268 67.149 26.268C67.199 26.038 67.403 25.872 67.639 25.872H70.234C70.384 25.872 70.524 25.939 70.62 26.05C70.715 26.164 70.755 26.316 70.73 26.462L66.945 46.814C66.9 47.052 66.694 47.222 66.452 47.222L63.877 47.215C63.727 47.215 63.583 47.152 63.488 47.039C63.413 46.949 63.372 46.835 63.372 46.719C63.372 46.688 63.376 46.656 63.382 46.627C63.382 46.627 63.447 46.286 63.488 46.06C61.39 47.352 59.267 47.855 57.277 47.495C55 47.044 52.883 44.825 52.455 42.446C52.339 41.809 52.287 41.171 52.293 40.542C52.203 40.622 52.084 40.672 51.957 40.672L40.007 40.677C39.996 40.727 39.987 40.77 39.987 40.822C39.987 41.004 40.051 41.242 40.133 41.512L40.184 41.687C40.751 43.077 42.112 43.949 43.656 43.912C45.191 43.877 46.613 43.144 47.877 41.735C47.97 41.628 48.107 41.568 48.248 41.568H50.912C51.084 41.568 51.246 41.656 51.335 41.802C51.428 41.947 51.44 42.129 51.368 42.284C49.855 45.456 46.464 47.586 42.905 47.586C40.428 47.49 38.35 46.288 37.193 44.278C36.617 43.207 36.344 41.878 36.36 40.516L34.797 46.849C34.755 47.019 34.602 47.136 34.43 47.136H31.06C30.946 47.136 30.837 47.083 30.768 46.992C30.712 46.925 30.684 46.842 30.684 46.762C30.684 46.73 30.689 46.703 30.694 46.674C32.011 41.207 33.856 33.437 34.526 30.362L20.283 46.982C20.213 47.065 20.111 47.111 20.002 47.111L17.155 47.136C17.04 47.136 16.934 47.086 16.861 46.996C16.807 46.93 16.777 46.846 16.777 46.761C16.777 46.736 16.777 46.709 16.784 46.682C17.989 41.151 19.674 33.272 20.267 30.209L6.187 47.003C6.114 47.088 6.003 47.138 5.887 47.136C4.915 47.102 4.183 47.106 3.331 47.111H1.71C1.565 47.114 1.432 47.029 1.37 46.896ZM158.467 39.332C157.884 41.364 155.957 43.299 154.072 43.755C152.63 43.945 151.574 43.81 150.842 43.335C150.065 42.803 149.675 41.88 149.374 41.048C149.324 40.75 149.294 40.45 149.294 40.157C149.294 38.306 150.288 36.522 152.116 35.155C153.163 34.423 154.592 34.145 155.842 34.431C156.547 34.594 157.515 35.012 158.117 36.101C158.452 36.692 158.633 37.441 158.633 38.171C158.633 38.575 158.577 38.971 158.467 39.332ZM41.131 36.997L48.874 36.924C48.814 36.371 48.522 35.854 47.91 35.242C47.235 34.665 46.31 34.394 44.995 34.387C43.571 34.585 41.908 35.519 41.131 36.997ZM65.081 39.332C65.191 38.971 65.244 38.575 65.244 38.172C65.244 37.441 65.066 36.692 64.73 36.102C64.123 35.012 63.16 34.594 62.452 34.432C61.204 34.145 59.775 34.422 58.724 35.155C56.901 36.522 55.906 38.305 55.906 40.157C55.906 40.45 55.934 40.75 55.986 41.048C56.287 41.88 56.676 42.803 57.452 43.335C58.188 43.81 59.246 43.945 60.683 43.755C62.567 43.299 64.494 41.364 65.081 39.332ZM71.389 26.268L70.784 29.54C70.756 29.686 70.797 29.839 70.892 29.957C70.987 30.069 71.128 30.135 71.28 30.135H74.2C74.44 30.135 74.65 29.965 74.693 29.725L75.242 26.482C75.265 26.337 75.226 26.185 75.133 26.072C75.038 25.959 74.897 25.892 74.753 25.891L71.882 25.866C71.642 25.864 71.435 26.035 71.389 26.268ZM85.622 39.332C85.037 41.364 83.108 43.299 81.226 43.755C79.786 43.945 78.73 43.81 77.994 43.335C77.218 42.803 76.83 41.88 76.529 41.048C76.477 40.75 76.449 40.45 76.449 40.157C76.449 38.306 77.442 36.522 79.269 35.155C80.319 34.423 81.744 34.145 82.996 34.431C83.702 34.594 84.667 35.012 85.271 36.101C85.608 36.692 85.788 37.441 85.788 38.171C85.788 38.575 85.731 38.971 85.622 39.332ZM181.598 45.773L176.788 38.069C177.178 37.61 181.271 32.635 182.102 31.66L181.734 33.589C181.706 33.736 181.747 33.887 181.843 34C181.937 34.113 182.077 34.181 182.228 34.181H183.503C183.358 35.061 182.024 43.168 181.598 45.773ZM167.596 31.605L167.653 31.245C167.682 31.1 167.64 30.949 167.548 30.835C167.451 30.722 167.312 30.655 167.164 30.655H164.566C164.326 30.652 164.116 30.821 164.07 31.059L163.997 31.451L161.221 46.585C161.197 46.731 161.241 46.884 161.339 46.997C161.437 47.109 161.586 47.176 161.736 47.172L163.018 47.153H164.223C164.463 47.153 164.663 46.986 164.71 46.755L166.615 37.363C167.244 34.983 168.825 34.274 170.223 34.068C170.298 34.058 170.58 34.062 170.64 34.024C169.682 39.718 168.548 46.46 168.527 46.574C168.503 46.716 168.545 46.864 168.64 46.977C168.734 47.088 168.876 47.153 169.019 47.153H171.816C172.035 47.153 172.23 47.013 172.292 46.803C172.382 46.529 173.051 42.659 173.452 40.334C174.488 41.901 177.797 46.924 177.797 46.924C177.89 47.064 178.047 47.148 178.214 47.148L181.558 47.153C181.619 47.153 181.674 47.139 181.731 47.121C181.802 47.153 181.881 47.175 181.959 47.172L184.782 47.153C185.026 47.151 185.231 46.977 185.271 46.743L187.451 34.187L190.691 34.182C190.934 34.182 191.141 34.007 191.184 33.769L191.62 31.235C191.626 31.207 191.629 31.181 191.629 31.15C191.629 31.036 191.587 30.922 191.513 30.832C191.418 30.72 191.279 30.655 191.128 30.655H187.935C188.091 29.759 188.659 26.455 188.659 26.455C188.663 26.427 188.666 26.399 188.666 26.371C188.666 26.252 188.626 26.138 188.549 26.05C188.456 25.935 188.313 25.873 188.168 25.873H185.361C185.119 25.873 184.911 26.047 184.869 26.285C184.869 26.285 184.245 29.978 184.129 30.655C183.875 30.663 183.614 30.668 183.614 30.668L183.176 30.671L182.711 30.663C182.533 30.659 182.374 30.75 182.281 30.893C182.191 30.757 182.039 30.668 181.869 30.668L179.3 30.663H178.549C178.409 30.663 178.277 30.722 178.18 30.823C178.18 30.823 175.596 33.777 174.224 35.26C174.625 32.91 175.732 26.463 175.732 26.463C175.736 26.433 175.739 26.406 175.739 26.376C175.739 26.26 175.696 26.146 175.619 26.058C175.526 25.943 175.386 25.879 175.239 25.879L172.444 25.873C172.198 25.871 171.987 26.046 171.948 26.284C171.883 26.669 171.593 28.384 171.204 30.671L171.191 30.651C171.093 30.536 170.95 30.476 170.798 30.481C169.608 30.516 168.533 31.002 167.596 31.605Z" fill="#222222"/>

  </symbol>
  <symbol viewBox="0 0 192 70" id="cashback-rtv-logo">
    <path fill-rule="evenodd" clip-rule="evenodd" d="M17.747 27.698V21.481H39.607L45.576 38.112L51.621 21.481H58.288L48.599 48.293H42.63L35.111 27.698H29.452V48.293H23.019V27.698H17.747Z" fill="#222222"/>
    <path fill-rule="evenodd" clip-rule="evenodd" d="M6.97203 33.7601V26.8441C14.182 26.3771 14.027 34.1481 6.97203 33.7601ZM12.787 48.2931H20.151L13.949 37.5691C21.623 34.9261 19.53 21.3251 11.004 21.4811H0.228027V48.2931H6.97203V38.3461L12.787 48.2931ZM134.564 21.4801H142.161L149.37 48.2931H144.02L142.78 43.5531H133.79L132.548 48.2931H127.355L134.565 21.4811L134.564 21.4801ZM141.463 38.6561H135.107L138.285 26.7661L141.463 38.6561Z" fill="#222222"/>
    <path fill-rule="evenodd" clip-rule="evenodd" d="M159.292 38.967V33.217H171.152V42.542C169.292 44.952 168.052 46.817 165.57 47.983C163.943 48.759 161.307 49.381 158.904 49.381C155.959 49.381 153.555 48.837 151.694 47.75C149.835 46.583 148.673 45.107 147.664 42.93C146.657 40.677 146.424 38.112 146.424 35.236C146.424 32.206 146.812 29.486 147.974 27.31C149.059 25.056 150.688 23.424 152.858 22.257C154.563 21.325 156.346 20.937 159.214 20.937C162.004 20.937 164.02 21.17 165.416 21.714C166.811 22.257 167.896 23.113 168.826 24.279C169.679 25.445 170.376 26.921 170.842 28.709L164.33 30.185C164.02 29.097 163.555 28.32 162.78 27.775C162.082 27.233 161.152 26.844 160.067 26.688C157.82 26.377 156.037 27.62 155.029 28.864C154.021 30.184 153.555 32.205 153.555 35.082C153.555 38.035 154.021 40.599 155.029 41.92C156.037 43.165 157.509 43.864 159.292 43.864C160.145 43.864 160.997 43.708 161.772 43.396C162.547 43.165 163.401 42.698 164.408 41.998V38.968H159.292V38.967ZM180.687 27.543H177.198V42.309H180.687C187.197 42.309 187.352 27.543 180.687 27.543ZM179.679 21.481H171.152V48.371H179.679C195.648 48.371 195.958 21.481 179.679 21.481Z" fill="#222222"/>
    <mask id="mask0_1_164" style="mask-type:alpha" maskUnits="userSpaceOnUse" x="0" y="0" width="192" height="70">
      <path d="M0 70H192V0H0V70Z" fill="white"/>
    </mask>
    <g mask="url(#mask0_1_164)">
      <path fill-rule="evenodd" clip-rule="evenodd" d="M52.397 48.294H131.076V21.481H52.397V48.294Z" fill="white"/>
      <path fill-rule="evenodd" clip-rule="evenodd" d="M51.622 48.293H131.851V21.48H51.62V48.293H51.622ZM53.172 46.893H130.378V22.958H53.173V46.895L53.172 46.893Z" fill="#222222"/>
      <path fill-rule="evenodd" clip-rule="evenodd" d="M70.846 41.766H57.358V27.931H70.459V30.651H61.002V33.449H69.76V35.392H61.002V39.434H70.846V41.766ZM107.433 41.766H103.324L103.248 38.035C103.248 36.092 100.845 36.169 99.294 36.169H96.736V41.766H92.473V27.93H102.085C108.364 27.93 109.837 33.06 105.185 34.926C106.348 35.313 107.355 36.48 107.355 37.956L107.433 41.765V41.766ZM96.581 34.07H100.612C101.698 34.07 102.55 33.914 103.016 33.681C103.48 33.371 103.79 32.904 103.79 32.282C103.79 31.117 102.782 30.495 100.845 30.495H96.581V34.07ZM118.518 27.698C119.758 27.698 120.921 27.854 121.929 28.242C123.014 28.554 123.944 29.019 124.719 29.642C125.495 30.262 126.038 31.04 126.502 31.895C126.89 32.827 127.122 33.76 127.122 34.849C127.122 35.859 126.968 36.869 126.502 37.724C126.115 38.58 125.495 39.356 124.719 39.978C123.944 40.599 123.014 41.143 122.007 41.455C120.921 41.765 119.759 41.998 118.518 41.998C117.278 41.998 116.038 41.766 115.03 41.455C113.945 41.143 113.015 40.599 112.318 39.978C111.542 39.356 110.921 38.656 110.535 37.724C110.069 36.869 109.836 35.936 109.836 34.849C109.836 33.76 110.069 32.749 110.535 31.895C110.921 31.04 111.542 30.263 112.318 29.642C113.093 29.019 114.023 28.554 115.03 28.242C116.116 27.854 117.278 27.698 118.518 27.698ZM118.518 39.511C119.216 39.511 119.914 39.434 120.611 39.201C121.231 38.967 121.774 38.656 122.239 38.268C122.704 37.88 123.014 37.413 123.324 36.792C123.557 36.248 123.712 35.548 123.712 34.849C123.712 34.071 123.557 33.449 123.324 32.827C123.014 32.283 122.704 31.817 122.239 31.429C121.774 31.039 121.231 30.729 120.611 30.496C119.914 30.263 119.293 30.185 118.518 30.185C117.82 30.185 117.123 30.263 116.426 30.495C115.806 30.729 115.263 31.04 114.798 31.429C114.333 31.817 113.945 32.283 113.712 32.905C113.48 33.449 113.325 34.071 113.325 34.849C113.325 35.548 113.48 36.248 113.712 36.792C113.945 37.413 114.332 37.88 114.798 38.268C115.263 38.656 115.805 38.968 116.426 39.201C117.046 39.434 117.743 39.511 118.518 39.511ZM74.8 27.931H78.288V37.724C78.442 40.444 85.264 40.366 85.108 37.724V27.93H88.907L88.829 37.956C88.907 43.086 74.876 43.086 74.799 37.956V27.931H74.8ZM125.96 27.854C124.874 27.854 124.022 26.999 124.022 25.91C124.022 24.823 124.874 23.968 125.96 23.968C127.046 23.968 127.898 24.823 127.898 25.91C127.898 26.999 127.046 27.854 125.96 27.854ZM125.96 27.543C126.89 27.543 127.588 26.766 127.588 25.91C127.588 24.978 126.89 24.2 125.96 24.2C125.03 24.2 124.332 24.978 124.332 25.91C124.332 26.766 125.03 27.543 125.96 27.543ZM125.65 25.677H126.348C126.348 25.6 126.425 25.6 126.425 25.6C126.503 25.523 126.503 25.445 126.503 25.445C126.503 25.367 126.503 25.289 126.425 25.211C126.425 25.211 126.348 25.134 126.27 25.134H125.65V25.677ZM125.185 26.922V24.822H126.58L126.813 25.056C126.89 25.134 126.89 25.289 126.89 25.366C126.89 25.523 126.89 25.677 126.813 25.756C126.657 25.832 126.58 25.91 126.348 25.988C126.425 25.988 126.503 26.066 126.58 26.144C126.657 26.222 126.735 26.3 126.813 26.454L127.123 26.922H126.58L126.27 26.454C126.193 26.3 126.115 26.144 126.038 26.144C126.038 26.066 125.96 26.066 125.96 26.066C125.882 25.988 125.805 25.988 125.727 25.988H125.65V26.922H125.185Z" fill="#222222"/>
    </g>
  </symbol>
  <symbol viewBox="0 0 192 70" id="cashback-groupon-logo">
    <path fill-rule="evenodd" clip-rule="evenodd" d="M96.1159 49.316C102.318 49.316 106.45 45.307 106.45 38.542V21.235H99.6659V38.27C99.6659 41.42 98.5309 42.98 96.1519 42.98C93.8559 42.98 92.8729 41.383 92.8729 38.27V21.235H86.0529V38.542C86.0619 45.457 89.8379 49.316 96.1139 49.316H96.1159ZM116.521 33.991H115.275V27.421H117.065C120.072 27.421 121.515 28.356 121.515 30.646C121.505 33.132 119.875 33.991 116.521 33.991ZM124.625 22.749C122.751 21.431 120.531 21.235 117.608 21.235H108.408V48.886H115.19V39.981H117.14C120.025 39.981 122.208 39.784 123.97 38.738C126.733 37.066 128.373 34.113 128.373 30.533C128.373 27.066 127.09 24.459 124.625 22.749ZM165.886 33.486L176.22 48.887H182.179V21.235H175.406V36.598L165.221 21.235H159.103V48.887H165.886V33.486ZM70.0699 42.55C66.2469 42.55 62.7799 39.205 62.7799 34.85C62.7799 30.804 66.0129 27.581 70.1539 27.581C74.0519 27.581 77.2939 30.804 77.2939 34.851C77.2839 39.355 74.0519 42.551 70.0699 42.551V42.55ZM80.0099 24.814C77.3209 22.17 73.8169 20.731 70.1069 20.731C66.1719 20.731 62.7339 22.095 60.0069 24.777C57.2809 27.458 55.7909 30.963 55.7909 34.775C55.7909 38.859 57.1219 42.279 59.7269 45.046C62.4519 47.924 65.9659 49.4 70.0599 49.4C73.9199 49.4 77.5839 47.887 80.2719 45.084C82.8869 42.401 84.2919 38.859 84.2919 34.898C84.3019 31.112 82.8209 27.571 80.0099 24.814ZM143.541 42.55C139.719 42.55 136.252 39.205 136.252 34.85C136.252 30.804 139.494 27.581 143.625 27.581C147.523 27.581 150.765 30.804 150.765 34.851C150.755 39.355 147.514 42.551 143.541 42.551V42.55ZM153.481 24.814C150.793 22.17 147.279 20.731 143.579 20.731C139.634 20.731 136.206 22.095 133.479 24.777C130.752 27.458 129.263 30.963 129.263 34.775C129.263 38.859 130.593 42.279 133.197 45.046C135.934 47.924 139.437 49.4 143.532 49.4C147.392 49.4 151.055 47.887 153.744 45.084C156.358 42.401 157.764 38.859 157.764 34.898C157.774 31.112 156.292 27.571 153.482 24.814H153.481ZM8.58094 45.036C11.3069 47.914 14.7839 49.429 18.8779 49.429C23.5989 49.429 28.0409 47.092 30.6919 43.242C32.2939 40.905 33.0719 38.261 33.0719 35.15C33.0719 34.57 33.0339 33.944 32.9969 33.317H17.2009V38.84H25.1179C23.7489 41.252 21.4539 42.578 18.8779 42.578C15.0549 42.578 11.6259 39.196 11.6259 34.794C11.6259 30.823 14.8209 27.524 18.8779 27.524C21.0609 27.524 22.8499 28.422 24.5739 30.207H32.2939C30.0739 24.291 24.8839 20.674 18.9619 20.674C15.0269 20.674 11.5969 22.076 8.86194 24.758C6.13594 27.441 4.65594 30.945 4.65594 34.757C4.64594 38.85 5.96694 42.27 8.58094 45.037V45.036ZM42.8909 33.991H41.5689V27.421H43.4429C46.4409 27.421 47.8839 28.356 47.8839 30.646C47.8839 33.132 46.2439 33.991 42.8909 33.991ZM48.4649 39.392C52.3999 38.299 54.7429 34.962 54.7429 30.487C54.7429 27.067 53.4579 24.459 50.9949 22.749C49.1209 21.431 46.9009 21.235 43.9769 21.235H34.7769V48.886H41.5599V39.981L46.8629 48.886H55.2479L48.4649 39.392ZM184.99 21.375C185.346 21.021 185.767 20.843 186.264 20.843C186.76 20.843 187.191 21.021 187.538 21.375C187.885 21.722 188.063 22.151 188.063 22.645C188.063 23.142 187.885 23.572 187.538 23.927C187.191 24.281 186.77 24.459 186.264 24.459C185.767 24.459 185.336 24.281 184.99 23.927C184.642 23.572 184.465 23.151 184.465 22.646C184.465 22.151 184.634 21.731 184.99 21.376V21.375ZM186.254 24.74C186.836 24.74 187.332 24.534 187.734 24.123C188.147 23.712 188.344 23.216 188.344 22.646C188.344 22.066 188.138 21.581 187.734 21.178C187.332 20.777 186.836 20.572 186.254 20.572C185.683 20.572 185.186 20.777 184.784 21.178C184.371 21.591 184.174 22.076 184.174 22.646C184.174 23.225 184.381 23.721 184.784 24.123C185.186 24.533 185.674 24.74 186.254 24.74Z" fill="#222222"/>
    <path fill-rule="evenodd" clip-rule="evenodd" d="M186.573 22.5431C186.489 22.5811 186.357 22.5911 186.189 22.5911H185.824V21.7591H186.17C186.395 21.7591 186.555 21.7871 186.657 21.8431C186.76 21.8991 186.807 22.0111 186.807 22.1791C186.807 22.3661 186.723 22.4891 186.573 22.5431ZM187.182 23.7491C187.173 23.7291 187.163 23.6921 187.163 23.6281C187.163 23.5721 187.153 23.5071 187.153 23.4601V23.2901C187.153 23.1801 187.117 23.0581 187.032 22.9351C186.948 22.8151 186.817 22.7401 186.639 22.7111C186.779 22.6931 186.892 22.6551 186.967 22.5991C187.117 22.5061 187.192 22.3471 187.192 22.1511C187.192 21.8611 187.07 21.6651 186.835 21.5721C186.704 21.5151 186.499 21.4871 186.207 21.4871H185.402V23.7771H185.805V22.8801H186.123C186.339 22.8801 186.489 22.9081 186.573 22.9551C186.723 23.0391 186.789 23.2171 186.789 23.4781V23.6561L186.798 23.7301V23.7591C186.798 23.7681 186.798 23.7771 186.808 23.7771H187.182V23.7491Z" fill="#222222"/>
  </symbol>
  <symbol viewBox="0 0 40 41" id="footer-icon-linkedin">
    <rect x="1" y="1.90625" width="38" height="38" stroke="black" stroke-width="2"/>
    <g clip-path="url(#clip0_1_278)">
      <path d="M15.0299 28.7812H11.2973V18.266H15.0299V28.7812V28.7812ZM13.1616 16.8316C11.9683 16.8316 11 15.9668 11 14.9227C11 13.8785 11.9683 13.0312 13.1616 13.0312C14.3549 13.0312 15.3232 13.8785 15.3232 14.9227C15.3232 15.9668 14.3549 16.8316 13.1616 16.8316ZM29 28.7812H25.2754V23.6625C25.2754 22.4426 25.2473 20.8781 23.3348 20.8781C21.3942 20.8781 21.0969 22.2035 21.0969 23.5746V28.7812H17.3683V18.266H20.9482V19.7004H21.0004C21.4986 18.8742 22.7161 18.0023 24.5321 18.0023C28.3089 18.0023 29.004 20.1785 29.004 23.0051V28.7812H29Z" fill="black"/>
    </g>
    <defs>
      <clipPath id="clip0_1_278">
        <rect width="18" height="18" fill="white" transform="translate(11 11.9062)"/>
      </clipPath>
    </defs>
  </symbol>
</svg>
